<?xml version="1.0" encoding="UTF-8"?>
<!--
The viewBox is set such that the canvas coordinates span from (-10, -10) to (210, 110).
The area from (0, 0) to (200, 100) is used for the plot, the remaining area is for margins and axes.
Warning: in SVG the coordinates start from the top-left corner,
but you can use transform="scale(1, -1)" to invert that.

	https://developer.mozilla.org/en-US/docs/Web/SVG/Attribute/viewBox
-->
<svg version="1.1" viewBox="-10 -10 220 120" width="220" height="120" xmlns="http://www.w3.org/2000/svg" >
	<!--
		We can use stylesheets inside SVG too.
		Likewise, SVG elements are affected by the main site's CSS.
		https://developer.mozilla.org/en-US/docs/Web/SVG/Tutorial/SVG_and_CSS
	-->
	<style>
		.axis {
			stroke-width: 1;
			stroke: white;;
		}
		.lin {
			stroke-width: 0.5;
			stroke: red;
		}
		.text1 {
			fill: white;
			font-size: 8px;
			text-anchor: middle;
		}
		.text2 {
			fill: red;
			font-size: 5px;
		}
	</style>

	<!--
	To draw the main plot, we use a path. Paths are very flexible, read about them here:
		https://developer.mozilla.org/en-US/docs/Web/SVG/Tutorial/Paths
	This path consists of line segments (L).
	-->
	<path
		d="M 0 100 L 0 90 L 25 30 L 50 25 L 75 35 L 100 70 L 125 86 L 150 50 L 175 14 L 200 8 V 100 Z"
		fill="rgb(0, 44, 122)"
		stroke="rgb(0, 156, 250)"
		stroke-width="0.5"
	/>

	<!-- Axis lines, the color and thickness is set by the stylesheet
		https://developer.mozilla.org/en-US/docs/Web/SVG/Element/line
	-->
	<line class="axis" x1="-5" y1="100" x2="205" y2="100"  />
	<line class="axis" x1="0" y1="105" x2="0" y2="-5"/>
	<line class="lin" x1="50" x2="70" y1="35" y2="20" />
	<text class="text2" x="73" y="18" font-family="sans-serif">Important event!</text>



	<!--
	A different plot, consisting of red circles.
	We set the color for all of them using a group
	https://developer.mozilla.org/en-US/docs/Web/SVG/Element/g
	-->
	<g id="red-dots-plot" fill="rgb(255, 0, 0)">
		<!-- https://developer.mozilla.org/en-US/docs/Web/SVG/Element/circle -->
		<circle cx="0" cy="50" r="1" />
		<circle cx="25" cy="50" r="1" />
		<circle cx="50" cy="50" r="1" />
		<circle cx="75" cy="40" r="1" />
		<circle cx="100" cy="30" r="1" />
		<circle cx="125" cy="40" r="1" />
		<circle cx="150" cy="50" r="1" />
		<circle cx="175" cy="50" r="1" />
		<circle cx="200" cy="50" r="1" />
	</g>



	<text class="text1" x="50%" y="110" font-family="sans-serif">Time</text>

	<!-- The group positions the text by the translate transform, the text element inside is rotated around the point -->
	<g transform="translate(-4, 50)">
		<text class="text1" transform="rotate(-90)" font-family="sans-serif">Population</text>
	</g>
</svg>
